<svg viewBox="0 0 606 400" xmlns="http://www.w3.org/2000/svg"><g><g><g><g><g><line x1="50" y1="378" x2="45" y2="378" style="visibility: inherit;" fill="rgb(0, 0, 0)" stroke="rgb(204, 204, 204)" stroke-width="1px"></line><line x1="50" y1="348.9230769230769" x2="45" y2="348.9230769230769" style="visibility: inherit;" fill="rgb(0, 0, 0)" stroke="rgb(204, 204, 204)" stroke-width="1px"></line><line x1="50" y1="319.8461538461538" x2="45" y2="319.8461538461538" style="visibility: inherit;" fill="rgb(0, 0, 0)" stroke="rgb(204, 204, 204)" stroke-width="1px"></line><line x1="50" y1="290.7692307692308" x2="45" y2="290.7692307692308" style="visibility: inherit;" fill="rgb(0, 0, 0)" stroke="rgb(204, 204, 204)" stroke-width="1px"></line><line x1="50" y1="261.6923076923077" x2="45" y2="261.6923076923077" style="visibility: inherit;" fill="rgb(0, 0, 0)" stroke="rgb(204, 204, 204)" stroke-width="1px"></line><line x1="50" y1="232.61538461538464" x2="45" y2="232.61538461538464" style="visibility: inherit;" fill="rgb(0, 0, 0)" stroke="rgb(204, 204, 204)" stroke-width="1px"></line><line x1="50" y1="203.53846153846155" x2="45" y2="203.53846153846155" style="visibility: inherit;" fill="rgb(0, 0, 0)" stroke="rgb(204, 204, 204)" stroke-width="1px"></line><line x1="50" y1="174.46153846153848" x2="45" y2="174.46153846153848" style="visibility: inherit;" fill="rgb(0, 0, 0)" stroke="rgb(204, 204, 204)" stroke-width="1px"></line><line x1="50" y1="145.38461538461542" x2="45" y2="145.38461538461542" style="visibility: inherit;" fill="rgb(0, 0, 0)" stroke="rgb(204, 204, 204)" stroke-width="1px"></line><line x1="50" y1="116.30769230769232" x2="45" y2="116.30769230769232" style="visibility: inherit;" fill="rgb(0, 0, 0)" stroke="rgb(204, 204, 204)" stroke-width="1px"></line><line x1="50" y1="87.23076923076928" x2="45" y2="87.23076923076928" style="visibility: inherit;" fill="rgb(0, 0, 0)" stroke="rgb(204, 204, 204)" stroke-width="1px"></line><line x1="50" y1="58.15384615384613" x2="45" y2="58.15384615384613" style="visibility: inherit;" fill="rgb(0, 0, 0)" stroke="rgb(204, 204, 204)" stroke-width="1px"></line><line x1="50" y1="29.076923076923038" x2="45" y2="29.076923076923038" style="visibility: inherit;" fill="rgb(0, 0, 0)" stroke="rgb(204, 204, 204)" stroke-width="1px"></line><line x1="50" y1="0" x2="45" y2="0" style="visibility: inherit;" fill="rgb(0, 0, 0)" stroke="rgb(204, 204, 204)" stroke-width="1px"></line></g><g transform="translate(40, 0)"><text x="0" y="378" dx="0em" dy="0.3em" style="text-anchor: end; visibility: hidden; font-family: &quot;Helvetica Neue&quot;, sans-serif; font-size: 12px; font-weight: 200;" fill="rgb(50, 49, 63)" stroke="none" stroke-width="1px">-0.1</text><text x="0" y="348.9230769230769" dx="0em" dy="0.3em" style="text-anchor: end; visibility: inherit; font-family: &quot;Helvetica Neue&quot;, sans-serif; font-size: 12px; font-weight: 200;" fill="rgb(50, 49, 63)" stroke="none" stroke-width="1px">0</text><text x="0" y="319.8461538461538" dx="0em" dy="0.3em" style="text-anchor: end; visibility: inherit; font-family: &quot;Helvetica Neue&quot;, sans-serif; font-size: 12px; font-weight: 200;" fill="rgb(50, 49, 63)" stroke="none" stroke-width="1px">0.1</text><text x="0" y="290.7692307692308" dx="0em" dy="0.3em" style="text-anchor: end; visibility: inherit; font-family: &quot;Helvetica Neue&quot;, sans-serif; font-size: 12px; font-weight: 200;" fill="rgb(50, 49, 63)" stroke="none" stroke-width="1px">0.2</text><text x="0" y="261.6923076923077" dx="0em" dy="0.3em" style="text-anchor: end; visibility: inherit; font-family: &quot;Helvetica Neue&quot;, sans-serif; font-size: 12px; font-weight: 200;" fill="rgb(50, 49, 63)" stroke="none" stroke-width="1px">0.3</text><text x="0" y="232.61538461538464" dx="0em" dy="0.3em" style="text-anchor: end; visibility: inherit; font-family: &quot;Helvetica Neue&quot;, sans-serif; font-size: 12px; font-weight: 200;" fill="rgb(50, 49, 63)" stroke="none" stroke-width="1px">0.4</text><text x="0" y="203.53846153846155" dx="0em" dy="0.3em" style="text-anchor: end; visibility: inherit; font-family: &quot;Helvetica Neue&quot;, sans-serif; font-size: 12px; font-weight: 200;" fill="rgb(50, 49, 63)" stroke="none" stroke-width="1px">0.5</text><text x="0" y="174.46153846153848" dx="0em" dy="0.3em" style="text-anchor: end; visibility: inherit; font-family: &quot;Helvetica Neue&quot;, sans-serif; font-size: 12px; font-weight: 200;" fill="rgb(50, 49, 63)" stroke="none" stroke-width="1px">0.6</text><text x="0" y="145.38461538461542" dx="0em" dy="0.3em" style="text-anchor: end; visibility: inherit; font-family: &quot;Helvetica Neue&quot;, sans-serif; font-size: 12px; font-weight: 200;" fill="rgb(50, 49, 63)" stroke="none" stroke-width="1px">0.7</text><text x="0" y="116.30769230769232" dx="0em" dy="0.3em" style="text-anchor: end; visibility: inherit; font-family: &quot;Helvetica Neue&quot;, sans-serif; font-size: 12px; font-weight: 200;" fill="rgb(50, 49, 63)" stroke="none" stroke-width="1px">0.8</text><text x="0" y="87.23076923076928" dx="0em" dy="0.3em" style="text-anchor: end; visibility: inherit; font-family: &quot;Helvetica Neue&quot;, sans-serif; font-size: 12px; font-weight: 200;" fill="rgb(50, 49, 63)" stroke="none" stroke-width="1px">0.9</text><text x="0" y="58.15384615384613" dx="0em" dy="0.3em" style="text-anchor: end; visibility: inherit; font-family: &quot;Helvetica Neue&quot;, sans-serif; font-size: 12px; font-weight: 200;" fill="rgb(50, 49, 63)" stroke="none" stroke-width="1px">1</text><text x="0" y="29.076923076923038" dx="0em" dy="0.3em" style="text-anchor: end; visibility: inherit; font-family: &quot;Helvetica Neue&quot;, sans-serif; font-size: 12px; font-weight: 200;" fill="rgb(50, 49, 63)" stroke="none" stroke-width="1px">1.1</text><text x="0" y="0" dx="0em" dy="0.3em" style="text-anchor: end; visibility: hidden; font-family: &quot;Helvetica Neue&quot;, sans-serif; font-size: 12px; font-weight: 200;" fill="rgb(50, 49, 63)" stroke="none" stroke-width="1px">1.2</text></g><line x1="50" y1="0" x2="50" y2="378" fill="rgb(0, 0, 0)" stroke="rgb(204, 204, 204)" stroke-width="1px"></line></g></g><g transform="translate(50, 0)" clip-path="url(#clip_0)"><clipPath id="clip_0"><rect width="556" height="378"></rect></clipPath><g><g><g><line x1="0" y1="0" x2="0" y2="378" fill="rgb(0, 0, 0)" stroke="rgb(60, 60, 60)" stroke-width="1px" opacity="0.25"></line><line x1="69.5" y1="0" x2="69.5" y2="378" fill="rgb(0, 0, 0)" stroke="rgb(60, 60, 60)" stroke-width="1px" opacity="0.25"></line><line x1="139" y1="0" x2="139" y2="378" fill="rgb(0, 0, 0)" stroke="rgb(60, 60, 60)" stroke-width="1px" opacity="0.25"></line><line x1="208.5" y1="0" x2="208.5" y2="378" fill="rgb(0, 0, 0)" stroke="rgb(60, 60, 60)" stroke-width="1px" opacity="0.25"></line><line x1="278" y1="0" x2="278" y2="378" fill="rgb(0, 0, 0)" stroke="rgb(60, 60, 60)" stroke-width="1px" opacity="0.25"></line><line x1="347.5" y1="0" x2="347.5" y2="378" fill="rgb(0, 0, 0)" stroke="rgb(60, 60, 60)" stroke-width="1px" opacity="0.25"></line><line x1="417" y1="0" x2="417" y2="378" fill="rgb(0, 0, 0)" stroke="rgb(60, 60, 60)" stroke-width="1px" opacity="0.25"></line><line x1="486.5" y1="0" x2="486.5" y2="378" fill="rgb(0, 0, 0)" stroke="rgb(60, 60, 60)" stroke-width="1px" opacity="0.25"></line><line x1="556" y1="0" x2="556" y2="378" fill="rgb(0, 0, 0)" stroke="rgb(60, 60, 60)" stroke-width="1px" opacity="0.25"></line></g><g><line x1="0" y1="378" x2="556" y2="378" fill="rgb(0, 0, 0)" stroke="rgb(60, 60, 60)" stroke-width="1px" opacity="0.25"></line><line x1="0" y1="348.9230769230769" x2="556" y2="348.9230769230769" fill="rgb(0, 0, 0)" stroke="rgb(60, 60, 60)" stroke-width="1px" opacity="0.25"></line><line x1="0" y1="319.8461538461538" x2="556" y2="319.8461538461538" fill="rgb(0, 0, 0)" stroke="rgb(60, 60, 60)" stroke-width="1px" opacity="0.25"></line><line x1="0" y1="290.7692307692308" x2="556" y2="290.7692307692308" fill="rgb(0, 0, 0)" stroke="rgb(60, 60, 60)" stroke-width="1px" opacity="0.25"></line><line x1="0" y1="261.6923076923077" x2="556" y2="261.6923076923077" fill="rgb(0, 0, 0)" stroke="rgb(60, 60, 60)" stroke-width="1px" opacity="0.25"></line><line x1="0" y1="232.61538461538464" x2="556" y2="232.61538461538464" fill="rgb(0, 0, 0)" stroke="rgb(60, 60, 60)" stroke-width="1px" opacity="0.25"></line><line x1="0" y1="203.53846153846155" x2="556" y2="203.53846153846155" fill="rgb(0, 0, 0)" stroke="rgb(60, 60, 60)" stroke-width="1px" opacity="0.25"></line><line x1="0" y1="174.46153846153848" x2="556" y2="174.46153846153848" fill="rgb(0, 0, 0)" stroke="rgb(60, 60, 60)" stroke-width="1px" opacity="0.25"></line><line x1="0" y1="145.38461538461542" x2="556" y2="145.38461538461542" fill="rgb(0, 0, 0)" stroke="rgb(60, 60, 60)" stroke-width="1px" opacity="0.25"></line><line x1="0" y1="116.30769230769232" x2="556" y2="116.30769230769232" fill="rgb(0, 0, 0)" stroke="rgb(60, 60, 60)" stroke-width="1px" opacity="0.25"></line><line x1="0" y1="87.23076923076928" x2="556" y2="87.23076923076928" fill="rgb(0, 0, 0)" stroke="rgb(60, 60, 60)" stroke-width="1px" opacity="0.25"></line><line x1="0" y1="58.15384615384613" x2="556" y2="58.15384615384613" fill="rgb(0, 0, 0)" stroke="rgb(60, 60, 60)" stroke-width="1px" opacity="0.25"></line><line x1="0" y1="29.076923076923038" x2="556" y2="29.076923076923038" fill="rgb(0, 0, 0)" stroke="rgb(60, 60, 60)" stroke-width="1px" opacity="0.25"></line><line x1="0" y1="0" x2="556" y2="0" fill="rgb(0, 0, 0)" stroke="rgb(60, 60, 60)" stroke-width="1px" opacity="0.25"></line></g></g></g><g><g><line x1="0" y1="348.9230769230769" x2="556" y2="348.9230769230769" fill="rgb(0, 0, 0)" stroke="rgb(153, 153, 153)" stroke-width="1.5px"></line></g></g><g><g><line x1="69.5" y1="0" x2="69.5" y2="378" fill="rgb(0, 0, 0)" stroke="rgb(153, 153, 153)" stroke-width="1.5px"></line></g></g><g><g><g><g><g><path stroke="rgb(238, 51, 119)" stroke-width="2px" d="M69.5,239.9195204147926L70.89,212.29272731492912L72.28,190.98332179888098L73.67,172.94893032965027L75.06,157.7150064832904L76.45,144.92923208303037L77.84,133.82773407532468L79.22999999999999,124.51078359962452L80.61999999999999,116.44538289683311L82.00999999999999,109.24389388538157L83.39999999999999,103.02798674079406L84.78999999999999,97.35259150871883L86.17999999999999,92.69389693492298L87.57000000000001,88.52211065108622L88.96000000000001,84.86984724613484L90.35000000000001,81.59671931711694L91.74000000000001,78.75215872916112L93.13000000000001,76.61988057290716L94.52000000000001,74.62328276831659L95.91,72.96958082055676L97.3,71.48328979167309L98.69,70.32763561389282L100.08,69.44378245728683L101.47,68.69687205015964L102.86,67.73917106262786L104.25,67.11894868755888L105.64,66.63330766172555L107.03,66.22826158132864L108.42,65.58333839755454L109.81,65.2554320516652L111.2,64.91083038412864L112.59,64.55104256415257L113.97999999999999,64.22219567029697L115.36999999999999,63.80759073079844L116.75999999999999,63.769636334531924L118.14999999999999,63.51242936489632L119.53999999999999,63.234794617636L120.92999999999999,63.05376254605062L122.32000000000001,62.836533458317035L123.71000000000001,62.82099110874418L125.10000000000001,62.5725816919138L126.49000000000001,62.40513453441878L127.88000000000001,62.36906493371964L129.27,62.31600448819148L130.66,62.114069358934216L132.04999999999998,61.987913460478524L133.44,61.835211654057446L134.82999999999998,61.75575457730747L136.22,61.72597479467885L137.60999999999999,61.49531039484174L139,61.46687073936863L140.39000000000001,61.35156063615898L141.78,61.34862052261275L143.17000000000002,61.35002207436361L144.56,61.21059335618298L145.95000000000002,61.23232877028778L147.34,61.05863144009112L148.73000000000002,61.03203621416958L150.12,60.92495708877101L151.51000000000002,60.83765567042008L152.9,60.774634736699284L154.29000000000002,60.71999234224489L155.68,60.71803932782859L157.07,60.55544714199306L158.45999999999998,60.57825968783692L159.85,60.379314256979L161.23999999999998,60.465016101551896L162.63,60.360492115310024L164.01999999999998,60.33565409580672L165.41,60.34248671553377L166.79999999999998,60.295274719617396L168.19,60.284670634534564L169.57999999999998,60.174944914942216L170.97,60.208865472581294L172.35999999999999,60.18587522327283L173.75,60.0674544163943L175.14000000000001,60.149009691089816L176.53,60.06064287272329L177.92000000000002,59.93446899890546L179.31,59.98977822262373L180.70000000000002,59.87432031554283L182.09,60.018630401788414L183.48000000000002,59.85123757597751L184.87,59.9452169741532L186.26000000000002,59.93838378341951L187.65,59.87291202763191L189.04000000000002,59.76801133724092L190.43,59.817450937739125L191.82,59.83829032686401L193.20999999999998,59.74717241473388L194.6,59.73348079731818L195.98999999999998,59.64066085464657L197.38,59.66391053163335L198.76999999999998,59.72703945034573L200.16,59.6361390290719L201.54999999999998,59.52551928787011L202.94,59.65762321807358L204.32999999999998,59.59781053300969L205.72,59.69103895030469L207.10999999999999,59.62646922653232L208.5,59.55860254439426L209.89000000000001,59.56296862849723L211.28,59.42561584783141L212.67000000000002,59.467876629445755L214.06,59.417800782325344L215.45000000000002,59.50053173799972L216.84,59.50833571198348L218.23000000000002,59.40980227648856L219.62,59.45504532899548L221.01000000000002,59.36372090200598L222.4,59.4140246784836L223.79000000000002,59.35919847946093L225.18,59.39005170456795L226.57,59.39610812010392L227.95999999999998,59.311950447067886L229.35,59.2563372720287L230.73999999999998,59.30224058846136L232.13,59.32232767953991L233.51999999999998,59.308694396627345L234.91,59.214180066712515L236.29999999999998,59.251842832343755L237.69,59.29041913087406L239.07999999999998,59.34869962472408L240.47,59.16772167051914L241.85999999999999,59.281634067476205L243.25,59.24545687254823L244.64000000000001,59.18538987329816L246.03,59.1830942977316L247.42000000000002,59.12947430871981L248.81,59.13690538383679L250.20000000000002,59.19933134302937L251.59,59.106202106108356L252.98000000000002,59.1084364252431L254.37,59.07013345936872L255.76000000000002,59.20446078232021L257.15000000000003,59.144473580901035L258.54,59.11970045205834L259.93,59.119642437467576L261.32,59.225348874520705L262.71,59.09846216573334L264.09999999999997,59.06139619112855L265.49,59.12031964226617L266.88,59.151282205971995L268.27,59.027399304490814L269.65999999999997,58.95257054470824L271.05,58.98845003208294L272.44,58.989368522802465L273.83,58.9865477918554L275.21999999999997,59.053908855551526L276.61,59.02318357982023L278,58.96347831641435L279.39,58.957971167978144L280.78000000000003,58.98357490869L282.16999999999996,58.89406623330967L283.56,58.87977412672461L284.95,58.99975197591874L286.34000000000003,58.94182848097904L287.72999999999996,59.00171250133076L289.12,58.95360646881113L290.51,58.91289984642157L291.90000000000003,58.91379355641811L293.28999999999996,58.95082688731054L294.68,58.95082003811507L296.07,58.94041353098697L297.46000000000004,58.938309012479465L298.84999999999997,58.834555153320196L300.24,58.85879558186093L301.63,58.87408218932893L303.02000000000004,58.83280489280742L304.40999999999997,58.84543502662052L305.8,58.887236650903446L307.19,58.8628427228183L308.58000000000004,58.91852491355547L309.96999999999997,58.902144969753635L311.36,58.850774791297795L312.75,58.84244734687155L314.14,58.91460905863369L315.53000000000003,58.83698584564172L316.91999999999996,58.81890029659604L318.31,58.839139511512144L319.7,58.799608772051556L321.09000000000003,58.82039601178553L322.47999999999996,58.79338702280421L323.87,58.855899801720795L325.26,58.84778044225288L326.65000000000003,58.79353766837437L328.03999999999996,58.80226688657933L329.43,58.85693261659452L330.82,58.87797523720826L332.21000000000004,58.830336962922274L333.59999999999997,58.76568979739517L334.99,58.79311938014473L336.38,58.7829051883208L337.77000000000004,58.74626506674639L339.15999999999997,58.72921006232957L340.55,58.69816938930779L341.94,58.72145114424967L343.33000000000004,58.796734454047055L344.71999999999997,58.80451103012149L346.11,58.8134356979578L347.5,58.75035959795804L348.89,58.73728527273653L350.28000000000003,58.79571297518771L351.66999999999996,58.76392249405541L353.06,58.68439623184014L354.45,58.734315959060666L355.84000000000003,58.77109494563388L357.22999999999996,58.71197002889818L358.62,58.65832730029257L360.01,58.681344960703825L361.40000000000003,58.73044379335539L362.78999999999996,58.697300130423514L364.18,58.66536691811683L365.57,58.68282126098444L366.96000000000004,58.7262793066559L368.34999999999997,58.66837241327852L369.74,58.63292262362393L371.13,58.66697638911455L372.52000000000004,58.654481350710796L373.90999999999997,58.6387736461906L375.3,58.684956182077826L376.69,58.70003843571715L378.08000000000004,58.67942108079353L379.46999999999997,58.68575109562272L380.86,58.69886629165791L382.25,58.6595301757427L383.64,58.65098428229146L385.03000000000003,58.61551530617464L386.41999999999996,58.67555985025075L387.81,58.667437963292514L389.2,58.627065790237396L390.59000000000003,58.66806574157357L391.97999999999996,58.63964352764782L393.37,58.617955795407624L394.76,58.71887986966351L396.15000000000003,58.63717892572447L397.53999999999996,58.605823945864586L398.93,58.63582124496696L400.32,58.69328529541173L401.71000000000004,58.66428384200293L403.09999999999997,58.62485159709206L404.49,58.59543998779691L405.88,58.61292915791432L407.27000000000004,58.63214274289737L408.65999999999997,58.6144255825771L410.05,58.57771922661465L411.44,58.62129258154988L412.83000000000004,58.59294155888631L414.21999999999997,58.56956846484775L415.61,58.624237107718045L417,58.60367497718482L418.39,58.59790672247897L419.78000000000003,58.54358425077578L421.16999999999996,58.61813322649664L422.56,58.628859811481504L423.95,58.59998392766602L425.34000000000003,58.55197863637784L426.72999999999996,58.56508656736122L428.12,58.57601850827916L429.51,58.509150664486185L430.90000000000003,58.59396084892137L432.28999999999996,58.584156381573905L433.68,58.598071878784936L435.07,58.55237171612765L436.46000000000004,58.56016165984914L437.84999999999997,58.6055016582485L439.24,58.602659728714286L440.63,58.598929356117026L442.02000000000004,58.53563577866123L443.40999999999997,58.57441211453306L444.8,58.58950122995458L446.19,58.61222566134097L447.58000000000004,58.576174881906866L448.96999999999997,58.59593954214739L450.36,58.585545424218594L451.75,58.55571001738252L453.14,58.640512725079475L454.53000000000003,58.59949791208339L455.91999999999996,58.5273685440211L457.31,58.54260943303035L458.7,58.54637234955402L460.09000000000003,58.576748337803394L461.47999999999996,58.54086810179069L462.87,58.491411266692126L464.26,58.53470014620228L465.65000000000003,58.51655112078305L467.03999999999996,58.580087909320525L468.43,58.55361417998847L469.82,58.51942707350821L471.21000000000004,58.51103027324825L472.59999999999997,58.53113996694782L473.99,58.552187994788994L475.38,58.51322504200175L476.77000000000004,58.50840662049848L478.15999999999997,58.49289221624264L479.55,58.53053892329035L480.94,58.53789885171659L482.33000000000004,58.55520255852895L483.71999999999997,58.55347738558976L485.11,58.55053614081868" style="fill: none;" fill="none"></path></g></g></g></g><g opacity="0.2"><g><g><g><path stroke="rgb(238, 51, 119)" stroke-width="2px" d="M69.5,239.9195204147926L70.89,192.89871855882498L72.28,165.52275885068454L73.67,145.16239824661844L75.06,130.5436551387494L76.45,119.94464047138513L77.84,110.80574446458087L79.22999999999999,104.40677200830902L80.61999999999999,98.56626270367553L82.00999999999999,92.9817005120791L83.39999999999999,88.81074004906878L84.78999999999999,84.25582425410926L86.17999999999999,81.87658023834229L87.57000000000001,78.79342966813306L88.96000000000001,76.32692307692304L90.35000000000001,73.92440326397235L91.74000000000001,72.07452332056488L93.13000000000001,71.60912869526788L94.52000000000001,69.92795062065125L95.91,69.07863532579864L97.3,67.98498481970563L98.69,67.60687010104834L100.08,67.36255222100476L101.47,66.9378859079801L102.86,65.48357319831848L104.25,65.65809834920441L105.64,65.48939648041357L107.03,65.27416034845203L108.42,64.06416551883399L109.81,64.48300854976355L111.2,64.09907054901123L112.59,63.70350331526532L113.97999999999999,63.4475388710315L115.36999999999999,62.83091222322906L116.75999999999999,63.680227518081665L118.14999999999999,62.90652823448181L119.53999999999999,62.58077106109033L120.92999999999999,62.62730532426099L122.32000000000001,62.32480661685645L123.71000000000001,62.78437796005835L125.10000000000001,61.98740287927478L126.49000000000001,62.0106786764585L127.88000000000001,62.28409563578094L129.27,62.1910097782428L130.66,61.638369908699644L132.04999999999998,61.690727453965394L133.44,61.47549132200385L134.82999999999998,61.56857717954193L136.22,61.65582242378821L137.60999999999999,60.951933200542726L139,61.3998753107511L140.39000000000001,61.079924088258L141.78,61.3416944833902L143.17000000000002,61.35332371638367L144.56,60.88214047138507L145.95000000000002,61.283530987226015L147.34,60.64945182433496L148.73000000000002,60.96938571563135L150.12,60.67271029032196L151.51000000000002,60.63199930924634L152.9,60.626176027151246L154.29000000000002,60.59127099697406L155.68,60.71343860259424L157.07,60.172427966044495L158.45999999999998,60.63199930924634L159.85,59.910657570912235L161.23999999999998,60.666904339423525L162.63,60.11426446988031L164.01999999999998,60.27714305657605L165.41,60.35858234992395L166.79999999999998,60.184057199037966L168.19,60.25969054148743L169.57999999999998,59.91646352181067L170.97,60.28877228956952L172.35999999999999,60.131716984968875L173.75,59.788489965292115L175.14000000000001,60.34112983483533L176.53,59.85247674355139L177.92000000000002,59.637240611589846L179.31,60.12007042077869L180.70000000000002,59.60233558141266L182.09,60.35858234992395L183.48000000000002,59.45690950980554L184.87,60.166604683949345L186.26000000000002,59.92228680390576L187.65,59.718679904937744L189.04000000000002,59.52089628806482L190.43,59.933916036899234L191.82,59.88738177372858L193.20999999999998,59.53252552105829L194.6,59.70122738984912L195.98999999999998,59.4220044796283L197.38,59.718679904937744L198.76999999999998,59.87575254073511L200.16,59.4220044796283L201.54999999999998,59.26493184383094L202.94,59.96882106707642L204.32999999999998,59.45690950980554L205.72,59.910657570912235L207.10999999999999,59.474362024894106L208.5,59.39872868244464L209.89000000000001,59.57325383333057L211.28,59.10205325713525L212.67000000000002,59.567430551235475L214.06,59.29983687400818L215.45000000000002,59.695421438950746L216.84,59.52671957015991L218.23000000000002,59.17768659958472L219.62,59.5616246003371L221.01000000000002,59.14858752030591L222.4,59.53252552105829L223.79000000000002,59.23004414485047L225.18,59.462732791900635L226.57,59.41037524663483L227.95999999999998,59.11369982132544L229.35,59.12532905431891L230.73999999999998,59.41037524663483L232.13,59.36964693436255L233.51999999999998,59.27657840802118L234.91,58.99153221570526L236.29999999999998,59.34056518628046L237.69,59.381293498552736L239.07999999999998,59.48599125788758L240.47,58.74139105356659L241.85999999999999,59.549978036146854L243.25,59.16023408449615L244.64000000000001,59.04388976097107L246.03,59.17768659958472L247.42000000000002,59.003161448698734L248.81,59.154410802401L250.20000000000002,59.34638846837555L251.59,58.88681712517371L252.98000000000002,59.11369982132544L254.37,58.97990298271179L255.76000000000002,59.52089628806482L257.15000000000003,59.003161448698734L258.54,59.061342276059634L259.93,59.11950577222382L261.32,59.474362024894106L262.71,58.799554549730715L264.09999999999997,58.9740797006167L265.49,59.25912589293256L266.88,59.22422086275543L268.27,58.73556777147144L269.65999999999997,58.776296083743716L271.05,59.072971509053104L272.44,58.99153221570526L273.83,58.97990298271179L275.21999999999997,59.2125916297619L276.61,58.950803903432984L278,58.82283034691443L279.39,58.94499795253455L280.78000000000003,59.04388976097107L282.16999999999996,58.68321022620569L283.56,58.846106144098144L284.95,59.28238435891956L286.34000000000003,58.805377831825865L287.72999999999996,59.14278156940753L289.12,58.840282862002994L290.51,58.817007064819336L291.90000000000003,58.9158988732558L293.28999999999996,59.038066478875976L294.68,58.950803903432984L296.07,58.9158988732558L297.46000000000004,58.93335138834442L298.84999999999997,58.59014169986426L300.24,58.9158988732558L301.63,58.91009292235742L303.02000000000004,58.73556777147144L304.40999999999997,58.87518789218018L305.8,58.98570893361017L307.19,58.805377831825865L308.58000000000004,59.04969571186945L309.96999999999997,58.86355865918671L311.36,58.72976182057306L312.75,58.82283034691443L314.14,59.08460074204663L315.53000000000003,58.65412847812354L316.91999999999996,58.776296083743716L318.31,58.88681712517371L319.7,58.706486023389346L321.09000000000003,58.86936461008514L322.47999999999996,58.72976182057306L323.87,59.003161448698734L325.26,58.82865362900952L326.65000000000003,58.66575771111707L328.03999999999996,58.82283034691443L329.43,58.98570893361017L330.82,58.927545437445985L332.21000000000004,58.718115256382816L333.59999999999997,58.61340016585126L334.99,58.857735377091615L336.38,58.75884356865515L337.77000000000004,58.65995176021869L339.15999999999997,58.68903350830078L340.55,58.625046730041504L341.94,58.776296083743716L343.33000000000004,58.9740797006167L344.71999999999997,58.82283034691443L346.11,58.8344595799079L347.5,58.60177093285779L348.89,58.706486023389346L350.28000000000003,58.93335138834442L351.66999999999996,58.68903350830078L353.06,58.49705584232623L354.45,58.85191209499652L355.84000000000003,58.857735377091615L357.22999999999996,58.5726891847757L358.62,58.53196087250342L360.01,58.73556777147144L361.40000000000003,58.846106144098144L362.78999999999996,58.61922344794641L364.18,58.59014169986426L365.57,58.72393853847797L366.96000000000004,58.82865362900952L368.34999999999997,58.53196087250342L369.74,58.54941338759198L371.13,58.747197004464965L372.52000000000004,58.625046730041504L373.90999999999997,58.60177093285779L375.3,58.79374859883234L376.69,58.73556777147144L378.08000000000004,58.63085268093988L379.46999999999997,58.70066274129425L380.86,58.72976182057306L382.25,58.566865902680604L383.64,58.63085268093988L385.03000000000003,58.53196087250342L386.41999999999996,58.817007064819336L387.81,58.648305196028446L389.2,58.53196087250342L390.59000000000003,58.76464951955353L391.97999999999996,58.5726891847757L393.37,58.566865902680604L394.76,58.95662718552808L396.15000000000003,58.44471562825714L397.53999999999996,58.53196087250342L398.93,58.706486023389346L400.32,58.82865362900952L401.71000000000004,58.59596498195941L403.09999999999997,58.53196087250342L404.49,58.526154921604984L405.88,58.65412847812354L407.27000000000004,58.67740427530731L408.65999999999997,58.5726891847757L410.05,58.491249891427856L411.44,58.72393853847797L412.83000000000004,58.526154921604984L414.21999999999997,58.514508357414854L415.61,58.75302028656006L417,58.55523666968713L418.39,58.58431841776917L419.78000000000003,58.415616548978335L421.16999999999996,58.79374859883234L422.56,58.65412847812354L423.95,58.53196087250342L425.34000000000003,58.43889234616205L426.72999999999996,58.59596498195941L428.12,58.60177093285779L429.51,58.35162977071906L430.90000000000003,58.79374859883234L432.28999999999996,58.56105995178223L433.68,58.63085268093988L435.07,58.44471562825714L436.46000000000004,58.57851246687079L437.84999999999997,58.71230930548444L439.24,58.59596498195941L440.63,58.59014169986426L442.02000000000004,58.3865348008963L443.40999999999997,58.66575771111707L444.8,58.625046730041504L446.19,58.66575771111707L447.58000000000004,58.491249891427856L448.96999999999997,58.64249924513007L450.36,58.56105995178223L451.75,58.485426609332706L453.14,58.840282862002994L454.53000000000003,58.50287912442133L455.91999999999996,58.35745305281415L457.31,58.57851246687079L458.7,58.55523666968713L460.09000000000003,58.648305196028446L461.47999999999996,58.456344861250614L462.87,58.37490556790277L464.26,58.636675963034975L465.65000000000003,58.473797376339235L467.03999999999996,58.72976182057306L468.43,58.491249891427856L469.82,58.43889234616205L471.21000000000004,58.491249891427856L472.59999999999997,58.57851246687079L473.99,58.60177093285779L475.38,58.42143983107343L476.77000000000004,58.49705584232623L478.15999999999997,58.456344861250614L479.55,58.61922344794641L480.94,58.55523666968713L482.33000000000004,58.59596498195941L483.71999999999997,58.54941338759198L485.11,58.543607436693605" style="fill: none;" fill="none"></path></g></g></g></g></g></g><g transform="translate(50, 378)" clip-path="url(#clip_1)"><clipPath id="clip_1"><rect width="556" height="22"></rect></clipPath><g><g><line x1="0" y1="0" x2="0" y2="5" style="visibility: inherit;" fill="rgb(0, 0, 0)" stroke="rgb(204, 204, 204)" stroke-width="1px"></line><line x1="69.5" y1="0" x2="69.5" y2="5" style="visibility: inherit;" fill="rgb(0, 0, 0)" stroke="rgb(204, 204, 204)" stroke-width="1px"></line><line x1="139" y1="0" x2="139" y2="5" style="visibility: inherit;" fill="rgb(0, 0, 0)" stroke="rgb(204, 204, 204)" stroke-width="1px"></line><line x1="208.5" y1="0" x2="208.5" y2="5" style="visibility: inherit;" fill="rgb(0, 0, 0)" stroke="rgb(204, 204, 204)" stroke-width="1px"></line><line x1="278" y1="0" x2="278" y2="5" style="visibility: inherit;" fill="rgb(0, 0, 0)" stroke="rgb(204, 204, 204)" stroke-width="1px"></line><line x1="347.5" y1="0" x2="347.5" y2="5" style="visibility: inherit;" fill="rgb(0, 0, 0)" stroke="rgb(204, 204, 204)" stroke-width="1px"></line><line x1="417" y1="0" x2="417" y2="5" style="visibility: inherit;" fill="rgb(0, 0, 0)" stroke="rgb(204, 204, 204)" stroke-width="1px"></line><line x1="486.5" y1="0" x2="486.5" y2="5" style="visibility: inherit;" fill="rgb(0, 0, 0)" stroke="rgb(204, 204, 204)" stroke-width="1px"></line><line x1="556" y1="0" x2="556" y2="5" style="visibility: inherit;" fill="rgb(0, 0, 0)" stroke="rgb(204, 204, 204)" stroke-width="1px"></line></g><g transform="translate(0, 8)"><text x="0" y="0" dx="0em" dy="0.95em" style="text-anchor: middle; visibility: hidden; font-family: &quot;Helvetica Neue&quot;, sans-serif; font-size: 12px; font-weight: 200;" fill="rgb(50, 49, 63)" stroke="none" stroke-width="1px">-50</text><text x="69.5" y="0" dx="0em" dy="0.95em" style="text-anchor: middle; visibility: inherit; font-family: &quot;Helvetica Neue&quot;, sans-serif; font-size: 12px; font-weight: 200;" fill="rgb(50, 49, 63)" stroke="none" stroke-width="1px">0</text><text x="139" y="0" dx="0em" dy="0.95em" style="text-anchor: middle; visibility: inherit; font-family: &quot;Helvetica Neue&quot;, sans-serif; font-size: 12px; font-weight: 200;" fill="rgb(50, 49, 63)" stroke="none" stroke-width="1px">50</text><text x="208.5" y="0" dx="0em" dy="0.95em" style="text-anchor: middle; visibility: inherit; font-family: &quot;Helvetica Neue&quot;, sans-serif; font-size: 12px; font-weight: 200;" fill="rgb(50, 49, 63)" stroke="none" stroke-width="1px">100</text><text x="278" y="0" dx="0em" dy="0.95em" style="text-anchor: middle; visibility: inherit; font-family: &quot;Helvetica Neue&quot;, sans-serif; font-size: 12px; font-weight: 200;" fill="rgb(50, 49, 63)" stroke="none" stroke-width="1px">150</text><text x="347.5" y="0" dx="0em" dy="0.95em" style="text-anchor: middle; visibility: inherit; font-family: &quot;Helvetica Neue&quot;, sans-serif; font-size: 12px; font-weight: 200;" fill="rgb(50, 49, 63)" stroke="none" stroke-width="1px">200</text><text x="417" y="0" dx="0em" dy="0.95em" style="text-anchor: middle; visibility: inherit; font-family: &quot;Helvetica Neue&quot;, sans-serif; font-size: 12px; font-weight: 200;" fill="rgb(50, 49, 63)" stroke="none" stroke-width="1px">250</text><text x="486.5" y="0" dx="0em" dy="0.95em" style="text-anchor: middle; visibility: inherit; font-family: &quot;Helvetica Neue&quot;, sans-serif; font-size: 12px; font-weight: 200;" fill="rgb(50, 49, 63)" stroke="none" stroke-width="1px">300</text><text x="556" y="0" dx="0em" dy="0.95em" style="text-anchor: middle; visibility: hidden; font-family: &quot;Helvetica Neue&quot;, sans-serif; font-size: 12px; font-weight: 200;" fill="rgb(50, 49, 63)" stroke="none" stroke-width="1px">350</text></g><line x1="0" y1="0" x2="556" y2="0" fill="rgb(0, 0, 0)" stroke="rgb(204, 204, 204)" stroke-width="1px"></line></g></g></g></g></svg>