<svg viewBox="0 0 330 200" xmlns="http://www.w3.org/2000/svg"><g><g><g><g><g><line x1="50" y1="178" x2="45" y2="178" style="visibility: inherit;" fill="rgb(0, 0, 0)" stroke="rgb(204, 204, 204)" stroke-width="1px"></line><line x1="50" y1="164.30769230769232" x2="45" y2="164.30769230769232" style="visibility: inherit;" fill="rgb(0, 0, 0)" stroke="rgb(204, 204, 204)" stroke-width="1px"></line><line x1="50" y1="150.6153846153846" x2="45" y2="150.6153846153846" style="visibility: inherit;" fill="rgb(0, 0, 0)" stroke="rgb(204, 204, 204)" stroke-width="1px"></line><line x1="50" y1="136.9230769230769" x2="45" y2="136.9230769230769" style="visibility: inherit;" fill="rgb(0, 0, 0)" stroke="rgb(204, 204, 204)" stroke-width="1px"></line><line x1="50" y1="123.23076923076923" x2="45" y2="123.23076923076923" style="visibility: inherit;" fill="rgb(0, 0, 0)" stroke="rgb(204, 204, 204)" stroke-width="1px"></line><line x1="50" y1="109.53846153846155" x2="45" y2="109.53846153846155" style="visibility: inherit;" fill="rgb(0, 0, 0)" stroke="rgb(204, 204, 204)" stroke-width="1px"></line><line x1="50" y1="95.84615384615385" x2="45" y2="95.84615384615385" style="visibility: inherit;" fill="rgb(0, 0, 0)" stroke="rgb(204, 204, 204)" stroke-width="1px"></line><line x1="50" y1="82.15384615384616" x2="45" y2="82.15384615384616" style="visibility: inherit;" fill="rgb(0, 0, 0)" stroke="rgb(204, 204, 204)" stroke-width="1px"></line><line x1="50" y1="68.46153846153848" x2="45" y2="68.46153846153848" style="visibility: inherit;" fill="rgb(0, 0, 0)" stroke="rgb(204, 204, 204)" stroke-width="1px"></line><line x1="50" y1="54.769230769230774" x2="45" y2="54.769230769230774" style="visibility: inherit;" fill="rgb(0, 0, 0)" stroke="rgb(204, 204, 204)" stroke-width="1px"></line><line x1="50" y1="41.076923076923094" x2="45" y2="41.076923076923094" style="visibility: inherit;" fill="rgb(0, 0, 0)" stroke="rgb(204, 204, 204)" stroke-width="1px"></line><line x1="50" y1="27.384615384615387" x2="45" y2="27.384615384615387" style="visibility: inherit;" fill="rgb(0, 0, 0)" stroke="rgb(204, 204, 204)" stroke-width="1px"></line><line x1="50" y1="13.69230769230768" x2="45" y2="13.69230769230768" style="visibility: inherit;" fill="rgb(0, 0, 0)" stroke="rgb(204, 204, 204)" stroke-width="1px"></line><line x1="50" y1="0" x2="45" y2="0" style="visibility: inherit;" fill="rgb(0, 0, 0)" stroke="rgb(204, 204, 204)" stroke-width="1px"></line></g><g transform="translate(40, 0)"><text x="0" y="178" dx="0em" dy="0.3em" style="text-anchor: end; visibility: hidden; font-family: &quot;Helvetica Neue&quot;, sans-serif; font-size: 12px; font-weight: 200;" fill="rgb(50, 49, 63)" stroke="none" stroke-width="1px">-0.1</text><text x="0" y="164.30769230769232" dx="0em" dy="0.3em" style="text-anchor: end; visibility: inherit; font-family: &quot;Helvetica Neue&quot;, sans-serif; font-size: 12px; font-weight: 200;" fill="rgb(50, 49, 63)" stroke="none" stroke-width="1px">0</text><text x="0" y="150.6153846153846" dx="0em" dy="0.3em" style="text-anchor: end; visibility: hidden; font-family: &quot;Helvetica Neue&quot;, sans-serif; font-size: 12px; font-weight: 200;" fill="rgb(50, 49, 63)" stroke="none" stroke-width="1px">0.1</text><text x="0" y="136.9230769230769" dx="0em" dy="0.3em" style="text-anchor: end; visibility: inherit; font-family: &quot;Helvetica Neue&quot;, sans-serif; font-size: 12px; font-weight: 200;" fill="rgb(50, 49, 63)" stroke="none" stroke-width="1px">0.2</text><text x="0" y="123.23076923076923" dx="0em" dy="0.3em" style="text-anchor: end; visibility: hidden; font-family: &quot;Helvetica Neue&quot;, sans-serif; font-size: 12px; font-weight: 200;" fill="rgb(50, 49, 63)" stroke="none" stroke-width="1px">0.3</text><text x="0" y="109.53846153846155" dx="0em" dy="0.3em" style="text-anchor: end; visibility: inherit; font-family: &quot;Helvetica Neue&quot;, sans-serif; font-size: 12px; font-weight: 200;" fill="rgb(50, 49, 63)" stroke="none" stroke-width="1px">0.4</text><text x="0" y="95.84615384615385" dx="0em" dy="0.3em" style="text-anchor: end; visibility: hidden; font-family: &quot;Helvetica Neue&quot;, sans-serif; font-size: 12px; font-weight: 200;" fill="rgb(50, 49, 63)" stroke="none" stroke-width="1px">0.5</text><text x="0" y="82.15384615384616" dx="0em" dy="0.3em" style="text-anchor: end; visibility: inherit; font-family: &quot;Helvetica Neue&quot;, sans-serif; font-size: 12px; font-weight: 200;" fill="rgb(50, 49, 63)" stroke="none" stroke-width="1px">0.6</text><text x="0" y="68.46153846153848" dx="0em" dy="0.3em" style="text-anchor: end; visibility: hidden; font-family: &quot;Helvetica Neue&quot;, sans-serif; font-size: 12px; font-weight: 200;" fill="rgb(50, 49, 63)" stroke="none" stroke-width="1px">0.7</text><text x="0" y="54.769230769230774" dx="0em" dy="0.3em" style="text-anchor: end; visibility: inherit; font-family: &quot;Helvetica Neue&quot;, sans-serif; font-size: 12px; font-weight: 200;" fill="rgb(50, 49, 63)" stroke="none" stroke-width="1px">0.8</text><text x="0" y="41.076923076923094" dx="0em" dy="0.3em" style="text-anchor: end; visibility: hidden; font-family: &quot;Helvetica Neue&quot;, sans-serif; font-size: 12px; font-weight: 200;" fill="rgb(50, 49, 63)" stroke="none" stroke-width="1px">0.9</text><text x="0" y="27.384615384615387" dx="0em" dy="0.3em" style="text-anchor: end; visibility: inherit; font-family: &quot;Helvetica Neue&quot;, sans-serif; font-size: 12px; font-weight: 200;" fill="rgb(50, 49, 63)" stroke="none" stroke-width="1px">1</text><text x="0" y="13.69230769230768" dx="0em" dy="0.3em" style="text-anchor: end; visibility: hidden; font-family: &quot;Helvetica Neue&quot;, sans-serif; font-size: 12px; font-weight: 200;" fill="rgb(50, 49, 63)" stroke="none" stroke-width="1px">1.1</text><text x="0" y="0" dx="0em" dy="0.3em" style="text-anchor: end; visibility: hidden; font-family: &quot;Helvetica Neue&quot;, sans-serif; font-size: 12px; font-weight: 200;" fill="rgb(50, 49, 63)" stroke="none" stroke-width="1px">1.2</text></g><line x1="50" y1="0" x2="50" y2="178" fill="rgb(0, 0, 0)" stroke="rgb(204, 204, 204)" stroke-width="1px"></line></g></g><g transform="translate(50, 0)" clip-path="url(#clip_0)"><clipPath id="clip_0"><rect width="280" height="178"></rect></clipPath><g><g><g><line x1="0" y1="0" x2="0" y2="178" fill="rgb(0, 0, 0)" stroke="rgb(60, 60, 60)" stroke-width="1px" opacity="0.25"></line><line x1="35" y1="0" x2="35" y2="178" fill="rgb(0, 0, 0)" stroke="rgb(60, 60, 60)" stroke-width="1px" opacity="0.25"></line><line x1="70" y1="0" x2="70" y2="178" fill="rgb(0, 0, 0)" stroke="rgb(60, 60, 60)" stroke-width="1px" opacity="0.25"></line><line x1="105" y1="0" x2="105" y2="178" fill="rgb(0, 0, 0)" stroke="rgb(60, 60, 60)" stroke-width="1px" opacity="0.25"></line><line x1="140" y1="0" x2="140" y2="178" fill="rgb(0, 0, 0)" stroke="rgb(60, 60, 60)" stroke-width="1px" opacity="0.25"></line><line x1="175" y1="0" x2="175" y2="178" fill="rgb(0, 0, 0)" stroke="rgb(60, 60, 60)" stroke-width="1px" opacity="0.25"></line><line x1="210" y1="0" x2="210" y2="178" fill="rgb(0, 0, 0)" stroke="rgb(60, 60, 60)" stroke-width="1px" opacity="0.25"></line><line x1="245" y1="0" x2="245" y2="178" fill="rgb(0, 0, 0)" stroke="rgb(60, 60, 60)" stroke-width="1px" opacity="0.25"></line><line x1="280" y1="0" x2="280" y2="178" fill="rgb(0, 0, 0)" stroke="rgb(60, 60, 60)" stroke-width="1px" opacity="0.25"></line></g><g><line x1="0" y1="178" x2="280" y2="178" fill="rgb(0, 0, 0)" stroke="rgb(60, 60, 60)" stroke-width="1px" opacity="0.25"></line><line x1="0" y1="164.30769230769232" x2="280" y2="164.30769230769232" fill="rgb(0, 0, 0)" stroke="rgb(60, 60, 60)" stroke-width="1px" opacity="0.25"></line><line x1="0" y1="150.6153846153846" x2="280" y2="150.6153846153846" fill="rgb(0, 0, 0)" stroke="rgb(60, 60, 60)" stroke-width="1px" opacity="0.25"></line><line x1="0" y1="136.9230769230769" x2="280" y2="136.9230769230769" fill="rgb(0, 0, 0)" stroke="rgb(60, 60, 60)" stroke-width="1px" opacity="0.25"></line><line x1="0" y1="123.23076923076923" x2="280" y2="123.23076923076923" fill="rgb(0, 0, 0)" stroke="rgb(60, 60, 60)" stroke-width="1px" opacity="0.25"></line><line x1="0" y1="109.53846153846155" x2="280" y2="109.53846153846155" fill="rgb(0, 0, 0)" stroke="rgb(60, 60, 60)" stroke-width="1px" opacity="0.25"></line><line x1="0" y1="95.84615384615385" x2="280" y2="95.84615384615385" fill="rgb(0, 0, 0)" stroke="rgb(60, 60, 60)" stroke-width="1px" opacity="0.25"></line><line x1="0" y1="82.15384615384616" x2="280" y2="82.15384615384616" fill="rgb(0, 0, 0)" stroke="rgb(60, 60, 60)" stroke-width="1px" opacity="0.25"></line><line x1="0" y1="68.46153846153848" x2="280" y2="68.46153846153848" fill="rgb(0, 0, 0)" stroke="rgb(60, 60, 60)" stroke-width="1px" opacity="0.25"></line><line x1="0" y1="54.769230769230774" x2="280" y2="54.769230769230774" fill="rgb(0, 0, 0)" stroke="rgb(60, 60, 60)" stroke-width="1px" opacity="0.25"></line><line x1="0" y1="41.076923076923094" x2="280" y2="41.076923076923094" fill="rgb(0, 0, 0)" stroke="rgb(60, 60, 60)" stroke-width="1px" opacity="0.25"></line><line x1="0" y1="27.384615384615387" x2="280" y2="27.384615384615387" fill="rgb(0, 0, 0)" stroke="rgb(60, 60, 60)" stroke-width="1px" opacity="0.25"></line><line x1="0" y1="13.69230769230768" x2="280" y2="13.69230769230768" fill="rgb(0, 0, 0)" stroke="rgb(60, 60, 60)" stroke-width="1px" opacity="0.25"></line><line x1="0" y1="0" x2="280" y2="0" fill="rgb(0, 0, 0)" stroke="rgb(60, 60, 60)" stroke-width="1px" opacity="0.25"></line></g></g></g><g><g><line x1="0" y1="164.30769230769232" x2="280" y2="164.30769230769232" fill="rgb(0, 0, 0)" stroke="rgb(153, 153, 153)" stroke-width="1.5px"></line></g></g><g><g><line x1="35" y1="0" x2="35" y2="178" fill="rgb(0, 0, 0)" stroke="rgb(153, 153, 153)" stroke-width="1.5px"></line></g></g><g><g><g><g><g><path stroke="rgb(238, 51, 119)" stroke-width="2px" d="M35,112.97797522178064L35.7,99.96853296840578L36.4,89.93394518571644L37.1,81.44155978486177L37.800000000000004,74.26791310588807L38.5,68.24709870576562L39.2,63.01940916774549L39.9,58.63206211834171L40.599999999999994,54.83406919480501L41.3,51.44289182962413L42,48.51582444407762L42.699999999999996,45.84328383214802L43.4,43.64950702226534L44.1,41.68501506850092L44.800000000000004,39.965166163523804L45.5,38.423851953563L46.2,37.08434987775311L46.900000000000006,36.08026122216262L47.6,35.140064372381886L48.3,34.36133700015637L49,33.661443341052404L49.699999999999996,33.117246400192926L50.4,32.701040416394335L51.1,32.349320700868816L51.8,31.89833981256021L52.5,31.606277424300202L53.2,31.377589322188214L53.9,31.186853337239427L54.6,30.88315935122941L55.300000000000004,30.72874842644549L56,30.56647568353148L56.7,30.397051789468662L57.4,30.242197961145138L58.099999999999994,30.046960714502973L58.8,30.029088009382747L59.5,29.90796938346969L60.199999999999996,29.77723132788151L60.9,29.691983421156124L61.6,29.58969035867841L62.300000000000004,29.582371474488014L63,29.465395611536138L63.7,29.386544833668125L64.4,29.369559677783315L65.10000000000001,29.344573542058413L65.8,29.24948239653517L66.5,29.190075650701544L67.2,29.118168450852465L67.89999999999999,29.08075215545165L68.6,29.06672887156833L69.3,28.9581091277297L70,28.944716909014858L70.7,28.89041744242408L71.4,28.889032944510774L72.10000000000001,28.889692934488664L72.8,28.82403602486923L73.5,28.83427121987097L74.2,28.75247723898471L74.9,28.739953561169813L75.60000000000001,28.689530057675228L76.30000000000001,28.648419865964996L77,28.618743341620274L77.7,28.593012266983038L78.4,28.592092593527752L79.1,28.51552801924541L79.8,28.526270435013174L80.5,28.432587136884308L81.19999999999999,28.472944090148758L81.89999999999999,28.423723800331175L82.6,28.412027590088854L83.3,28.4152450671032L84,28.393012963206075L84.7,28.38801950515122L85.39999999999999,28.336349721851093L86.1,28.352322894495956L86.8,28.34149679826075L87.5,28.285732502958155L88.2,28.32413683866133L88.9,28.282524950647485L89.60000000000001,28.22310974022531L90.3,28.249154824410112L91,28.194785757054547L91.7,28.262741300313053L92.4,28.18391610720633L93.10000000000001,28.22817095608272L93.80000000000001,28.224953210181667L94.5,28.194122595022435L95.2,28.14472491542034L95.9,28.16800599713642L96.6,28.17781925444919L97.3,28.134911877837652L98,28.128464502440835L98.69999999999999,28.084755640547854L99.39999999999999,28.09570390113953L100.1,28.125431275559635L100.8,28.082626315277253L101.5,28.030535537674268L102.2,28.092743208510853L102.89999999999999,28.064577446761177L103.6,28.1084786591382L104.3,28.078072810377677L105,28.046114425667128L105.7,28.048170412361117L106.4,27.983491060619002L107.10000000000001,28.00339164032104L107.8,27.97981095040717L108.5,28.018768913661233L109.2,28.022443800881092L109.9,27.976044458240665L110.60000000000001,27.997349387728036L111.30000000000001,27.954344763378487L112,27.978032785106024L112.7,27.95221515699484L113.4,27.966743924373276L114.1,27.969595887244708L114.8,27.92996608353991L115.5,27.903777868838915L116.19999999999999,27.925393716259606L116.89999999999999,27.934852716820387L117.6,27.928432811110213L118.3,27.883926063160942L119,27.901661439569295L119.7,27.919826998136443L120.39999999999999,27.947271251854204L121.1,27.862048828974622L121.8,27.915690116430596L122.5,27.898654294480366L123.2,27.87036877631502L123.9,27.869287790995315L124.60000000000001,27.844038166540003L125.3,27.847537455880826L126,27.876933807034987L126.7,27.83307929864364L127.4,27.834131438341984L128.1,27.816094591977873L128.8,27.879349257283053L129.5,27.85110131587402L130.20000000000002,27.839435662609475L130.9,27.839408343569403L131.6,27.889185448848366L132.29999999999998,27.82943456481621L133,27.811980216986484L133.7,27.83972723895073L134.4,27.854307493817487L135.1,27.795971101056523L135.79999999999998,27.76073427766684L136.5,27.777629909287754L137.2,27.77806242608156L137.9,27.77673414537105L138.6,27.808454434624792L139.3,27.793985918539676L140,27.765870741591925L140.7,27.763277428307163L141.4,27.775334216261427L142.1,27.733184628383924L142.8,27.726454482954978L143.5,27.78295198866016L144.20000000000002,27.755675845540395L144.89999999999998,27.78387519903933L145.6,27.76122209377877L146.29999999999998,27.74205336683343L147,27.74247421439796L147.7,27.759913190320844L148.4,27.759909965038304L149.1,27.75500954633779L149.8,27.754018529686107L150.5,27.705160892304207L151.20000000000002,27.716575697278415L151.9,27.723774152646968L152.60000000000002,27.704336695554815L153.29999999999998,27.710284218884794L154,27.72996858164234L154.7,27.718481493813897L155.4,27.744702207970562L156.1,27.736988901100915L156.8,27.71279871124605L157.5,27.70887732207177L158.2,27.742858233959794L158.9,27.706305504032343L159.6,27.69778902855583L160.3,27.707319664151242L161,27.688704659854977L161.70000000000002,27.698493360047166L162.39999999999998,27.685774841426337L163.1,27.71521207594259L163.79999999999998,27.711388673865116L164.5,27.685845780345602L165.2,27.6899563645797L165.9,27.715698427920188L166.6,27.72560738683353L167.3,27.70317454867771L168,27.67273223263581L168.70000000000002,27.68564880863957L169.4,27.680838951114026L170.10000000000002,27.663585137250948L170.79999999999998,27.6555539446949L171.5,27.640936908192543L172.2,27.6519002742763L172.9,27.687351145027435L173.6,27.691013130586327L174.3,27.695215751948382L175,27.665513249832088L175.7,27.659356557002923L176.4,27.686870131173038L177.1,27.671900010428203L177.8,27.63445113562841L178.5,27.657958308764023L179.20000000000002,27.675277514081557L179.89999999999998,27.647435622073743L180.6,27.62217528955574L181.29999999999998,27.633014293664786L182,27.656134907982164L182.7,27.64052757464387L183.4,27.625490241864554L184.1,27.633709482685788L184.8,27.654173853398817L185.5,27.62690552794595L186.20000000000002,27.610212240754123L186.9,27.6262481409058L187.60000000000002,27.620364233932605L188.29999999999998,27.612967484184992L189,27.634714815899088L189.7,27.64181704115782L190.4,27.632108339632936L191.1,27.635089140266786L191.8,27.64126507914051L192.5,27.622741722968783L193.2,27.61871746626423L193.9,27.60201514417747L194.6,27.630290088213314L195.3,27.62646549594197L196,27.60745426101124L196.70000000000002,27.626761116402378L197.39999999999998,27.613377110902945L198.1,27.60316436926601L198.79999999999998,27.650689462434144L199.5,27.612216531161266L200.2,27.597451487735185L200.9,27.611577200010913L201.6,27.63863699096106L202.3,27.624980221895555L203,27.606411598630643L203.70000000000002,27.59256168737528L204.4,27.600797328330003L205.10000000000002,27.609844995332622L205.79999999999998,27.601501993911967L206.5,27.58421699031058L207.2,27.604735660094917L207.9,27.591385178523183L208.6,27.58037880090714L209.3,27.606122235909567L210,27.5964395395209L210.7,27.593723271431884L211.4,27.568142848248897L212.1,27.60324792147196L212.8,27.608299064665886L213.5,27.594701426255426L214.20000000000002,27.572095759987462L214.89999999999998,27.5782682777521L215.6,27.58341612294626L216.29999999999998,27.551928090683987L217,27.59186516166139L217.7,27.587248243175026L218.4,27.59380104344899L219.1,27.572280861033647L219.8,27.575949141410433L220.5,27.59729972266726L221.20000000000002,27.59596145955328L221.9,27.594204829070975L222.60000000000002,27.564399916935713L223.29999999999998,27.58265967298118L224,27.58976512944949L224.7,27.60046605216587L225.4,27.58348975920481L226.1,27.592796927254568L226.8,27.587902342621447L227.5,27.57385286532829L228.2,27.61378641551363L228.9,27.594472561774722L229.6,27.56050688051789L230.3,27.567683807088343L231,27.569455762488417L231.70000000000002,27.583759799283058L232.39999999999998,27.566863815128954L233.1,27.543574617648687L233.79999999999998,27.563959328105852L234.5,27.55541296163858L235.2,27.58533240174353L235.9,27.572865936608338L236.6,27.55676724625519L237.3,27.55281319745555L238,27.562282841578593L238.70000000000002,27.572194346752468L239.4,27.55384671290028L240.10000000000002,27.551577720763817L240.79999999999998,27.544271996008433L241.5,27.561999810438323L242.2,27.565465596840085L242.9,27.573613903222622L243.6,27.57280152019834L244.3,27.571416489591854" style="fill: none;" fill="none"></path></g></g></g></g><g opacity="0.2"><g><g><g><path stroke="rgb(238, 51, 119)" stroke-width="2px" d="M35,112.97797522178064L35.7,90.83590450653664L36.4,77.94457956460806L37.1,68.3568965288309L37.800000000000004,61.47293813412007L38.5,56.48186773520251L39.2,52.1783664409931L39.9,49.16509369703439L40.599999999999994,46.414800955699064L41.3,43.78503357447113L42,41.820930499296935L42.699999999999996,39.676023061458864L43.4,38.55563831329346L44.1,37.10378434107852L44.800000000000004,35.94230769230768L45.5,34.81096238356369L46.2,33.939854896985565L46.900000000000006,33.72070081417377L47.6,32.929034948349L48.3,32.52909282537607L49,32.01409338070795L49.699999999999996,31.83603935975293L50.4,31.720990199309114L51.1,31.521015057196962L51.8,30.836179971694946L52.5,30.918363772905792L53.2,30.838922152152406L53.9,30.737567571493287L54.6,30.16778164643506L55.300000000000004,30.365014608089723L56,30.184218406677246L56.7,29.997946005601136L57.4,29.877412484242342L58.099999999999994,29.587043322049652L58.8,29.986985445022583L59.5,29.622650861740112L60.199999999999996,29.469251981148346L60.9,29.49116494105411L61.6,29.348718459789552L62.300000000000004,29.56513036214386L63,29.189835218282838L63.7,29.20079577886139L64.4,29.32954768034128L65.10000000000001,29.285713599278353L65.8,29.02547577711252L66.5,29.05013091747577L67.2,28.94877633681662L67.89999999999999,28.992610417879547L68.6,29.033694157233583L69.3,28.702233094435456L70,28.91316879712616L70.7,28.76250393574054L71.4,28.88577147630545L72.10000000000001,28.891247675969026L72.8,28.669367735202485L73.5,28.858382316736055L74.2,28.559794774422272L74.9,28.71045147455655L75.60000000000001,28.57074717374948L76.30000000000001,28.55157639430118L77,28.54883421384369L77.7,28.532397453601533L78.4,28.589926114449128L79.1,28.33516449194687L79.8,28.55157639430118L80.5,28.21189695138196L81.19999999999999,28.568013154543365L81.89999999999999,28.307775332377503L82.6,28.38447477267337L83.3,28.42282449282132L84,28.340640691610474L84.7,28.37625639255228L85.39999999999999,28.214630970588075L86.1,28.389950972336976L86.8,28.315993712498567L87.5,28.154368290534364L88.2,28.414606112700227L88.9,28.18449963056122L89.60000000000001,28.0831450499021L90.3,28.31050935158362L91,28.066708289659942L91.7,28.42282449282132L92.4,27.99822722948514L93.10000000000001,28.33242231148938L93.80000000000001,28.217373151045564L94.5,28.12149477005005L95.2,28.028358569511994L95.9,28.22284935070917L96.6,28.200936390803406L97.3,28.0338347691756L98,28.113276389928956L98.69999999999999,27.981790469242952L99.39999999999999,28.12149477005005L100.1,28.1954601911398L100.8,27.981790469242952L101.5,27.9078250481532L102.2,28.239286110951326L102.89999999999999,27.99822722948514L103.6,28.21189695138196L104.3,28.00644560960623L105,27.9708299086644L105.7,28.053013709875245L106.4,27.83112560785733L107.10000000000001,28.050271529417756L107.8,27.924261808395386L108.5,28.11054237072284L109.2,28.031100749969482L109.9,27.866741308799135L110.60000000000001,28.04753751021164L111.30000000000001,27.853038567763093L112,28.0338347691756L112.7,27.891396449162386L113.4,28.000969409942627L114.1,27.976314269579376L114.8,27.83660996877228L115.5,27.842086168435884L116.19999999999999,27.976314269579376L116.89999999999999,27.9571353288797L117.6,27.913309409068177L118.3,27.779081307924713L119,27.943440749095032L119.7,27.96261968979468L120.39999999999999,28.011921809269808L121.1,27.661289967023407L121.8,28.042053149296663L122.5,27.85852292867807L123.2,27.803736448287964L123.9,27.866741308799135L124.60000000000001,27.78455750758829L125.3,27.85578074822058L126,27.94618292955252L126.7,27.729771027198183L127.4,27.83660996877228L128.1,27.77360510826111L128.8,28.028358569511994L129.5,27.78455750758829L130.20000000000002,27.81195482840903L130.9,27.839343987978424L131.6,28.00644560960623L132.29999999999998,27.688679126592774L133,27.77086292780362L133.7,27.905091028947083L134.4,27.888654268704926L135.1,27.65854778656592L135.79999999999998,27.677726727265565L136.5,27.817431028072633L137.2,27.779081307924713L137.9,27.77360510826111L138.6,27.88317806904132L139.3,27.75990236722504L140,27.699639687171327L140.7,27.757168348018922L141.4,27.803736448287964L142.1,27.633892646202668L142.8,27.71060024774991L143.5,27.916043428274293L144.20000000000002,27.691421307050263L144.89999999999998,27.850304548556977L145.6,27.70785806729242L146.29999999999998,27.696897506713867L147,27.74346560698288L147.7,27.800994267830475L148.4,27.75990236722504L149.1,27.74346560698288L149.8,27.751683987103974L150.5,27.590066726391115L151.20000000000002,27.74346560698288L151.9,27.740731587776764L152.60000000000002,27.65854778656592L153.29999999999998,27.724294827534578L154,27.776339127467224L154.7,27.691421307050263L155.4,27.80647046749408L156.1,27.718818627871002L156.8,27.655813767359803L157.5,27.699639687171327L158.2,27.822907227736238L158.9,27.62019806641797L159.6,27.677726727265565L160.3,27.729771027198183L161,27.64485320678122L161.70000000000002,27.721552647077118L162.39999999999998,27.655813767359803L163.1,27.78455750758829L163.79999999999998,27.702381867628816L164.5,27.625674266081575L165.2,27.699639687171327L165.9,27.776339127467224L166.6,27.748949967897858L167.3,27.650329406444826L168,27.601019125718324L168.70000000000002,27.716076447413514L169.4,27.669508347144472L170.10000000000002,27.62294024687546L170.79999999999998,27.636634826660156L171.5,27.6065034866333L172.2,27.677726727265565L172.9,27.77086292780362L173.6,27.699639687171327L174.3,27.705115886834932L175,27.59554292605472L175.7,27.64485320678122L176.4,27.751683987103974L177.1,27.636634826660156L177.8,27.546232645328217L178.5,27.713334266956025L179.20000000000002,27.716076447413514L179.89999999999998,27.58184834627005L180.6,27.562669405570375L181.29999999999998,27.65854778656592L182,27.71060024774991L182.7,27.603761306175812L183.4,27.590066726391115L184.1,27.653071586902314L184.8,27.702381867628816L185.5,27.562669405570375L186.20000000000002,27.57088778569147L186.9,27.664023986229523L187.60000000000002,27.6065034866333L188.29999999999998,27.59554292605472L189,27.685945107386658L189.7,27.65854778656592L190.4,27.609237505839417L191.1,27.64211102632376L191.8,27.655813767359803L192.5,27.57910616581256L193.2,27.609237505839417L193.9,27.562669405570375L194.6,27.696897506713867L195.3,27.61745588596048L196,27.562669405570375L196.70000000000002,27.672242366350616L197.39999999999998,27.58184834627005L198.1,27.57910616581256L198.79999999999998,27.762644547682527L199.5,27.52158566621634L200.2,27.562669405570375L200.9,27.64485320678122L201.6,27.702381867628816L202.3,27.592808906848603L203,27.562669405570375L203.70000000000002,27.55993538636426L204.4,27.62019806641797L205.10000000000002,27.63115862699655L205.79999999999998,27.58184834627005L206.5,27.5434986261221L207.2,27.653071586902314L207.9,27.55993538636426L208.6,27.55445102544931L209.3,27.66676616668701L210,27.573629966148957L210.7,27.587324545933626L211.4,27.50788292518027L212.1,27.685945107386658L212.8,27.62019806641797L213.5,27.562669405570375L214.20000000000002,27.51884348575885L214.89999999999998,27.592808906848603L215.6,27.59554292605472L216.29999999999998,27.477751585153413L217,27.685945107386658L217.7,27.576372146606445L218.4,27.609237505839417L219.1,27.52158566621634L219.8,27.58459052672751L220.5,27.64759538723871L221.20000000000002,27.592808906848603L221.9,27.590066726391115L222.60000000000002,27.4941883453956L223.29999999999998,27.625674266081575L224,27.6065034866333L224.7,27.625674266081575L225.4,27.5434986261221L226.1,27.614721866754365L226.8,27.576372146606445L227.5,27.540756445664613L228.2,27.70785806729242L228.9,27.548974825785706L229.6,27.480493765610902L230.3,27.58459052672751L231,27.573629966148957L231.70000000000002,27.61745588596048L232.39999999999998,27.527061865879915L233.1,27.488712145731995L233.79999999999998,27.611979686296905L234.5,27.535280246001008L235.2,27.655813767359803L235.9,27.5434986261221L236.6,27.51884348575885L237.3,27.5434986261221L238,27.58459052672751L238.70000000000002,27.59554292605472L239.4,27.510625105637757L240.10000000000002,27.546232645328217L240.79999999999998,27.527061865879915L241.5,27.603761306175812L242.2,27.573629966148957L242.9,27.592808906848603L243.6,27.57088778569147L244.3,27.568153766485352" style="fill: none;" fill="none"></path></g></g></g></g></g></g><g transform="translate(50, 178)" clip-path="url(#clip_1)"><clipPath id="clip_1"><rect width="280" height="22"></rect></clipPath><g><g><line x1="0" y1="0" x2="0" y2="5" style="visibility: inherit;" fill="rgb(0, 0, 0)" stroke="rgb(204, 204, 204)" stroke-width="1px"></line><line x1="35" y1="0" x2="35" y2="5" style="visibility: inherit;" fill="rgb(0, 0, 0)" stroke="rgb(204, 204, 204)" stroke-width="1px"></line><line x1="70" y1="0" x2="70" y2="5" style="visibility: inherit;" fill="rgb(0, 0, 0)" stroke="rgb(204, 204, 204)" stroke-width="1px"></line><line x1="105" y1="0" x2="105" y2="5" style="visibility: inherit;" fill="rgb(0, 0, 0)" stroke="rgb(204, 204, 204)" stroke-width="1px"></line><line x1="140" y1="0" x2="140" y2="5" style="visibility: inherit;" fill="rgb(0, 0, 0)" stroke="rgb(204, 204, 204)" stroke-width="1px"></line><line x1="175" y1="0" x2="175" y2="5" style="visibility: inherit;" fill="rgb(0, 0, 0)" stroke="rgb(204, 204, 204)" stroke-width="1px"></line><line x1="210" y1="0" x2="210" y2="5" style="visibility: inherit;" fill="rgb(0, 0, 0)" stroke="rgb(204, 204, 204)" stroke-width="1px"></line><line x1="245" y1="0" x2="245" y2="5" style="visibility: inherit;" fill="rgb(0, 0, 0)" stroke="rgb(204, 204, 204)" stroke-width="1px"></line><line x1="280" y1="0" x2="280" y2="5" style="visibility: inherit;" fill="rgb(0, 0, 0)" stroke="rgb(204, 204, 204)" stroke-width="1px"></line></g><g transform="translate(0, 8)"><text x="0" y="0" dx="0em" dy="0.95em" style="text-anchor: middle; visibility: hidden; font-family: &quot;Helvetica Neue&quot;, sans-serif; font-size: 12px; font-weight: 200;" fill="rgb(50, 49, 63)" stroke="none" stroke-width="1px">-50</text><text x="35" y="0" dx="0em" dy="0.95em" style="text-anchor: middle; visibility: inherit; font-family: &quot;Helvetica Neue&quot;, sans-serif; font-size: 12px; font-weight: 200;" fill="rgb(50, 49, 63)" stroke="none" stroke-width="1px">0</text><text x="70" y="0" dx="0em" dy="0.95em" style="text-anchor: middle; visibility: inherit; font-family: &quot;Helvetica Neue&quot;, sans-serif; font-size: 12px; font-weight: 200;" fill="rgb(50, 49, 63)" stroke="none" stroke-width="1px">50</text><text x="105" y="0" dx="0em" dy="0.95em" style="text-anchor: middle; visibility: inherit; font-family: &quot;Helvetica Neue&quot;, sans-serif; font-size: 12px; font-weight: 200;" fill="rgb(50, 49, 63)" stroke="none" stroke-width="1px">100</text><text x="140" y="0" dx="0em" dy="0.95em" style="text-anchor: middle; visibility: inherit; font-family: &quot;Helvetica Neue&quot;, sans-serif; font-size: 12px; font-weight: 200;" fill="rgb(50, 49, 63)" stroke="none" stroke-width="1px">150</text><text x="175" y="0" dx="0em" dy="0.95em" style="text-anchor: middle; visibility: inherit; font-family: &quot;Helvetica Neue&quot;, sans-serif; font-size: 12px; font-weight: 200;" fill="rgb(50, 49, 63)" stroke="none" stroke-width="1px">200</text><text x="210" y="0" dx="0em" dy="0.95em" style="text-anchor: middle; visibility: inherit; font-family: &quot;Helvetica Neue&quot;, sans-serif; font-size: 12px; font-weight: 200;" fill="rgb(50, 49, 63)" stroke="none" stroke-width="1px">250</text><text x="245" y="0" dx="0em" dy="0.95em" style="text-anchor: middle; visibility: inherit; font-family: &quot;Helvetica Neue&quot;, sans-serif; font-size: 12px; font-weight: 200;" fill="rgb(50, 49, 63)" stroke="none" stroke-width="1px">300</text><text x="280" y="0" dx="0em" dy="0.95em" style="text-anchor: middle; visibility: hidden; font-family: &quot;Helvetica Neue&quot;, sans-serif; font-size: 12px; font-weight: 200;" fill="rgb(50, 49, 63)" stroke="none" stroke-width="1px">350</text></g><line x1="0" y1="0" x2="280" y2="0" fill="rgb(0, 0, 0)" stroke="rgb(204, 204, 204)" stroke-width="1px"></line></g></g></g></g></svg>